<svg width="141" height="29" viewBox="0 0 141 29" fill="none" xmlns="http://www.w3.org/2000/svg">
<path d="M14.496 19.456H7.616V28H2.368V6.24H15.872C15.9787 6.92267 16.0747 7.616 16.16 8.32C16.2667 9.024 16.3627 9.71733 16.448 10.4H7.616V15.328H13.92L14.496 19.456ZM24.3965 28.608C22.2418 28.608 20.7165 27.9893 19.8205 26.752C18.9245 25.5147 18.4765 23.9787 18.4765 22.144V12.512H23.7565V22.016C23.7565 22.7413 23.9378 23.296 24.3005 23.68C24.6632 24.064 25.1752 24.256 25.8365 24.256C26.2418 24.256 26.7218 24.1493 27.2765 23.936C27.8312 23.7227 28.3432 23.4773 28.8125 23.2V12.512H34.0925V28H31.4365L30.2205 26.624C29.5592 27.0933 28.7058 27.5413 27.6605 27.968C26.6365 28.3947 25.5485 28.608 24.3965 28.608ZM46.9433 12.48L47.9993 16.704C47.2526 16.704 46.4526 16.8533 45.5993 17.152C44.7459 17.4293 43.9566 17.8667 43.2313 18.464V28H37.9513V12.512H40.6073L42.0153 14.336C42.6553 13.8667 43.4233 13.44 44.3193 13.056C45.2153 12.672 46.0899 12.48 46.9433 12.48ZM60.026 11.904C62.1807 11.904 63.7167 12.5227 64.634 13.76C65.5727 14.9973 66.042 16.5333 66.042 18.368V28H60.794V18.496C60.794 17.7707 60.5913 17.216 60.186 16.832C59.802 16.448 59.2793 16.256 58.618 16.256C58.17 16.256 57.6473 16.3733 57.05 16.608C56.4527 16.8427 55.9193 17.0987 55.45 17.376V28H50.202V12.512H52.858L54.074 13.952C54.7567 13.4613 55.6313 13.0027 56.698 12.576C57.786 12.128 58.8953 11.904 60.026 11.904ZM75.206 7.488C75.206 8.27733 74.918 8.94933 74.342 9.504C73.766 10.0587 73.0833 10.336 72.294 10.336C71.5047 10.336 70.8327 10.0587 70.278 9.504C69.7233 8.94933 69.446 8.27733 69.446 7.488C69.446 6.69867 69.7233 6.016 70.278 5.44C70.8327 4.864 71.5047 4.576 72.294 4.576C73.0833 4.576 73.766 4.864 74.342 5.44C74.918 6.016 75.206 6.69867 75.206 7.488ZM74.95 12.48V28H69.67V12.48H74.95Z" fill="#4B4B4B"/>
<path d="M94.4743 28H79.3063V6.24H84.5543V23.872H93.8983L94.4743 28ZM102.365 28.608C100.211 28.608 98.6853 27.9893 97.7893 26.752C96.8933 25.5147 96.4453 23.9787 96.4453 22.144V12.512H101.725V22.016C101.725 22.7413 101.907 23.296 102.269 23.68C102.632 24.064 103.144 24.256 103.805 24.256C104.211 24.256 104.691 24.1493 105.245 23.936C105.8 23.7227 106.312 23.4773 106.781 23.2V12.512H112.061V28H109.405L108.189 26.624C107.528 27.0933 106.675 27.5413 105.629 27.968C104.605 28.3947 103.517 28.608 102.365 28.608ZM114.256 28L120.016 20.256L114.448 13.184C115.344 13.0773 116.24 12.96 117.136 12.832C118.032 12.6827 118.939 12.5547 119.856 12.448L123.12 16.672L126.416 12.48H132.208L126.256 20.672C127.237 21.888 128.197 23.1147 129.136 24.352C130.096 25.568 131.067 26.784 132.048 28H126.16L123.152 24.256C122.661 24.8747 122.16 25.504 121.648 26.144C121.157 26.7627 120.656 27.3813 120.144 28H114.256Z" fill="#77A653"/>
<circle cx="138" cy="25" r="3" fill="#77A653"/>
</svg>
